<?xml version="1.0" encoding="UTF-8"?>
<svg version="1.1" xmlns="http://www.w3.org/2000/svg" width="500" height="199">
<path d="M0 0 C165 0 330 0 500 0 C500 65.67 500 131.34 500 199 C335 199 170 199 0 199 C0 133.33 0 67.66 0 0 Z " fill="#1772E4" transform="translate(0,0)"/>
<path d="M0 0 C1.41176514 0.50394287 1.41176514 0.50394287 2.85205078 1.01806641 C6.47173719 2.32444869 10.08052326 3.65905527 13.6875 5 C14.50825012 5.30450073 15.32900024 5.60900146 16.17462158 5.92272949 C21.84263482 8.02754486 27.50485495 10.14728099 33.16195679 12.28125 C35.09796696 13.0112895 37.03467693 13.73947585 38.97207642 14.46582031 C41.72123586 15.49845448 44.46653904 16.54072634 47.2109375 17.5859375 C48.47188988 18.05741714 48.47188988 18.05741714 49.75831604 18.53842163 C55.57294685 20.77089369 55.57294685 20.77089369 56.6875 23 C48.24637947 26.29982233 39.797401 29.57840323 31.33781528 32.83059788 C27.40937174 34.34159622 23.48395403 35.85960074 19.56469727 37.39428711 C15.77804405 38.87674151 11.9844423 40.33991076 8.18540764 41.79032707 C6.74162495 42.34532378 5.30041752 42.90707113 3.86200142 43.47583199 C-10.76207713 49.24845633 -10.76207713 49.24845633 -18.3125 47 C-19.4112722 46.67635719 -19.4112722 46.67635719 -20.53224182 46.34617615 C-22.88761192 45.58014536 -25.19156656 44.7269773 -27.50390625 43.83984375 C-28.33462143 43.53051407 -29.16533661 43.22118439 -30.02122498 42.90248108 C-32.64287426 41.92377011 -35.25889737 40.93092922 -37.875 39.9375 C-39.66435913 39.26663208 -41.45406987 38.59670117 -43.24414062 37.92773438 C-47.60439748 36.29595366 -51.95967172 34.65148903 -56.3125 33 C-56.06802124 34.52185913 -56.06802124 34.52185913 -55.81860352 36.07446289 C-55.34940259 39.71376909 -55.19795514 43.14376511 -55.21484375 46.80859375 C-55.21806641 48.04931641 -55.22128906 49.29003906 -55.22460938 50.56835938 C-55.23298828 51.84517578 -55.24136719 53.12199219 -55.25 54.4375 C-55.25451172 55.74138672 -55.25902344 57.04527344 -55.26367188 58.38867188 C-55.27540749 61.59249552 -55.29182637 64.79622363 -55.3125 68 C-55.9725 68 -56.6325 68 -57.3125 68 C-56.9825 72.95 -56.6525 77.9 -56.3125 83 C-57.3025 83 -58.2925 83 -59.3125 83 C-59.3125 78.05 -59.3125 73.1 -59.3125 68 C-59.9725 68 -60.6325 68 -61.3125 68 C-61.34136338 63.52084672 -61.35925187 59.04171709 -61.375 54.5625 C-61.38337891 53.28310547 -61.39175781 52.00371094 -61.40039062 50.68554688 C-61.40361328 49.47060547 -61.40683594 48.25566406 -61.41015625 47.00390625 C-61.41801147 45.31503296 -61.41801147 45.31503296 -61.42602539 43.59204102 C-61.3125 41 -61.3125 41 -60.3125 40 C-60.08057135 38.48530552 -59.90034762 36.96245438 -59.75 35.4375 C-59.66621094 34.61121094 -59.58242187 33.78492188 -59.49609375 32.93359375 C-59.40521484 31.97646484 -59.40521484 31.97646484 -59.3125 31 C-61.16875 30.38125 -61.16875 30.38125 -63.0625 29.75 C-68.8125 27.83333333 -74.5625 25.91666667 -80.3125 24 C-80.3125 23.01 -80.3125 22.02 -80.3125 21 C-39.72167412 5.25146422 -39.72167412 5.25146422 -24.8046875 0.19921875 C-21.42938555 -0.89617824 -21.42938555 -0.89617824 -18.7578125 -2.16796875 C-12.06871098 -4.44397294 -6.31023026 -2.30425183 0 0 Z " fill="#F9FBFC" transform="translate(161.3125,23)"/>
<path d="M0 0 C0.79131163 18.11224401 0.79131163 18.11224401 -4 24 C-10.79128036 31.12256232 -20.58545987 34.90535207 -30.328125 35.16796875 C-31.96871984 35.17985712 -33.60936258 35.18621625 -35.25 35.1875 C-36.05824219 35.19974609 -36.86648437 35.21199219 -37.69921875 35.22460938 C-47.73189329 35.24868779 -58.36635551 33.29152033 -65.9296875 26.1875 C-69.18637772 22.44776003 -71.13321834 19.91700453 -71.09765625 14.8671875 C-71.09443359 14.06152344 -71.09121094 13.25585938 -71.08789062 12.42578125 C-71.07951172 11.58402344 -71.07113281 10.74226563 -71.0625 9.875 C-71.05798828 9.02550781 -71.05347656 8.17601563 -71.04882812 7.30078125 C-71.03702874 5.20049091 -71.01909306 3.1002367 -71 1 C-62.45074483 2.61525593 -54.7371661 5.69407185 -46.70703125 8.98632812 C-45.68738281 9.38658203 -44.66773438 9.78683594 -43.6171875 10.19921875 C-42.24989502 10.75355591 -42.24989502 10.75355591 -40.85498047 11.3190918 C-34.92484005 12.73342065 -29.77875601 10.73145841 -24.296875 8.49609375 C-23.6924054 8.2533522 -23.08793579 8.01061066 -22.46514893 7.76051331 C-20.55704743 6.9934802 -18.65326875 6.21643931 -16.75 5.4375 C-14.22637965 4.40911204 -11.69999163 3.38847402 -9.171875 2.37109375 C-8.0590918 1.91661865 -6.94630859 1.46214355 -5.79980469 0.99389648 C-3 0 -3 0 0 0 Z " fill="#F8FBFC" transform="translate(185,61)"/>
<path d="M0 0 C3.90921234 2.06524425 6.84753166 4.12547916 9 8 C9.41325251 11.04973795 9.34865741 14.06805992 9.29296875 17.140625 C9.28872391 18.02280701 9.28447906 18.90498901 9.28010559 19.81390381 C9.26333838 22.62624883 9.22568998 25.43787226 9.1875 28.25 C9.17245062 30.1588438 9.15876266 32.06769886 9.14648438 33.9765625 C9.11344127 38.65131889 9.06167255 43.32553718 9 48 C6.03 48 3.06 48 0 48 C0 44.37 0 40.74 0 37 C-2.31 37 -4.62 37 -7 37 C-7 40.63 -7 44.26 -7 48 C-10.3 48 -13.6 48 -17 48 C-17.09930776 42.71644498 -17.17167464 37.43344016 -17.21972656 32.14916992 C-17.23977001 30.35382618 -17.26701251 28.55854713 -17.30175781 26.76342773 C-17.35059849 24.1741535 -17.3730412 21.5857466 -17.390625 18.99609375 C-17.41127014 18.20101913 -17.43191528 17.40594452 -17.45318604 16.58677673 C-17.45544021 10.91441003 -16.2364976 7.67813549 -13 3 C-9.11910968 -0.34187777 -4.96845504 -0.88652825 0 0 Z " fill="#F4FBFC" transform="translate(153,100)"/>
<path d="M0 0 C0.99 0.66 1.98 1.32 3 2 C5.28397032 1.65394389 6.93409037 1.03295481 9 0 C13.8955438 -0.1346515 17.14712481 0.30703891 21 3.4375 C24.06647659 7.36642313 24.11997569 9.36539599 24.09765625 14.3203125 C24.09443359 15.57714844 24.09121094 16.83398438 24.08789062 18.12890625 C24.07532227 20.10697266 24.07532227 20.10697266 24.0625 22.125 C24.05748489 23.46484211 24.05292201 24.804686 24.04882812 26.14453125 C24.03701086 29.42973206 24.02053617 32.71484397 24 36 C21.03 36 18.06 36 15 36 C14.505 23.13 14.505 23.13 14 10 C12.68 10 11.36 10 10 10 C9.67 18.58 9.34 27.16 9 36 C6.03 36 3.06 36 0 36 C-0.33 26.76 -0.66 17.52 -1 8 C-1.99 8.33 -2.98 8.66 -4 9 C-4.33 17.91 -4.66 26.82 -5 36 C-7.97 36 -10.94 36 -14 36 C-14.0992502 31.96166211 -14.17164562 27.92380128 -14.21972656 23.88452148 C-14.2397799 22.51199977 -14.26703028 21.13956283 -14.30175781 19.76733398 C-14.35054552 17.78927956 -14.37088876 15.81058881 -14.390625 13.83203125 C-14.41157227 12.64327393 -14.43251953 11.4545166 -14.45410156 10.22973633 C-13.91059375 6.36411009 -12.68908744 4.76908246 -10 2 C-6.74145461 -0.28098177 -3.91657643 -0.33332565 0 0 Z " fill="#F1F9FC" transform="translate(224,112)"/>
<path d="M0 0 C5.28 0 10.56 0 16 0 C16 1.65 16 3.3 16 5 C17.65 5 19.3 5 21 5 C21 3.35 21 1.7 21 0 C25.95 0 30.9 0 36 0 C36.08138426 2.87557703 36.14067851 5.74882262 36.1875 8.625 C36.21263672 9.43324219 36.23777344 10.24148437 36.26367188 11.07421875 C36.32556835 16.14972938 35.89134203 19.64024606 33 24 C31.0625 25.86328125 31.0625 25.86328125 29 27.3125 C28.319375 27.80363281 27.63875 28.29476562 26.9375 28.80078125 C22.97320593 31.25448746 19.56636406 31.30442427 15 31 C9.66738285 29.22246095 5.92900065 26.92900065 2 23 C-0.21951563 18.000485 -0.24296224 13.47867078 -0.125 8.125 C-0.11597656 7.34125 -0.10695313 6.5575 -0.09765625 5.75 C-0.07428063 3.83319945 -0.03841653 1.91655809 0 0 Z " fill="#0C458C" transform="translate(85,113)"/>
<path d="M0 0 C3.90921234 2.06524425 6.84753166 4.12547916 9 8 C9.41325251 11.04973795 9.34865741 14.06805992 9.29296875 17.140625 C9.28872391 18.02280701 9.28447906 18.90498901 9.28010559 19.81390381 C9.26333838 22.62624883 9.22568998 25.43787226 9.1875 28.25 C9.17245062 30.1588438 9.15876266 32.06769886 9.14648438 33.9765625 C9.11344127 38.65131889 9.06167255 43.32553718 9 48 C6.03 48 3.06 48 0 48 C-0.33 35.79 -0.66 23.58 -1 11 C-2.65 10.67 -4.3 10.34 -6 10 C-6.33 22.54 -6.66 35.08 -7 48 C-9.97 48 -12.94 48 -16 48 C-16.07427668 42.3949675 -16.12866208 36.79022289 -16.16479492 31.18481445 C-16.17986128 29.27883919 -16.20031824 27.37289848 -16.22631836 25.46704102 C-16.26279642 22.72403424 -16.27974792 19.98148672 -16.29296875 17.23828125 C-16.30845261 16.38913651 -16.32393646 15.53999176 -16.33988953 14.66511536 C-16.34122944 9.93179707 -16.06191286 6.85175613 -13 3 C-9.05182938 -0.27134137 -4.98210361 -0.88896358 0 0 Z " fill="#F6FCFC" transform="translate(268,100)"/>
<path d="M0 0 C4.58992806 1.97841727 4.58992806 1.97841727 6 5 C6.49461097 10.05363387 6.34361863 14.94117019 6 20 C1.71 20 -2.58 20 -7 20 C-6.67 22.31 -6.34 24.62 -6 27 C-5.01 27 -4.02 27 -3 27 C-2.34 25.68 -1.68 24.36 -1 23 C1.31 23 3.62 23 6 23 C6.34717213 26.73210035 6.2922789 28.54070458 4.25 31.75 C1.19621725 34.80378275 -0.59707749 35.81701011 -4.875 36.375 C-8.84487514 35.89861498 -10.89536536 34.46959574 -14 32 C-17.03197396 27.45203906 -16.36842639 22.97591978 -16.375 17.625 C-16.39949219 16.5834375 -16.42398437 15.541875 -16.44921875 14.46875 C-16.47864716 6.79774526 -16.47864716 6.79774526 -14.1015625 2.8359375 C-9.82941948 -0.89623206 -5.4588589 -0.65940345 0 0 Z " fill="#F0F9FC" transform="translate(297,113)"/>
<path d="M0 0 C2.97 0 5.94 0 9 0 C9.33 8.58 9.66 17.16 10 26 C11.32 26 12.64 26 14 26 C14.33 17.42 14.66 8.84 15 0 C17.97 0 20.94 0 24 0 C24.08719631 4.56237931 24.14045922 9.12454386 24.1875 13.6875 C24.21263672 14.98107422 24.23777344 16.27464844 24.26367188 17.60742188 C24.27333984 18.85458984 24.28300781 20.10175781 24.29296875 21.38671875 C24.3086792 22.53358154 24.32438965 23.68044434 24.34057617 24.86206055 C23.95935145 28.37452033 23.11306482 30.19534142 21 33 C16.94184834 35.61525329 13.80855413 36.70124748 9 36 C5.12720019 33.87375697 2.25663094 31.80988574 0 28 C-0.34057617 24.97558594 -0.34057617 24.97558594 -0.29296875 21.484375 C-0.28330078 20.23398438 -0.27363281 18.98359375 -0.26367188 17.6953125 C-0.2259668 15.74238281 -0.2259668 15.74238281 -0.1875 13.75 C-0.16719727 11.77386719 -0.16719727 11.77386719 -0.14648438 9.7578125 C-0.11112551 6.50479679 -0.06177033 3.252604 0 0 Z " fill="#F1FAFD" transform="translate(182,113)"/>
<path d="M0 0 C2.64 0 5.28 0 8 0 C8.02505615 0.74685059 8.0501123 1.49370117 8.07592773 2.26318359 C8.19168213 5.63397267 8.31450128 9.00446783 8.4375 12.375 C8.47681641 13.550625 8.51613281 14.72625 8.55664062 15.9375 C8.61948242 17.61972656 8.61948242 17.61972656 8.68359375 19.3359375 C8.73858032 20.89127197 8.73858032 20.89127197 8.79467773 22.47802734 C8.84164223 24.99425166 8.84164223 24.99425166 10 27 C10.99 27 11.98 27 13 27 C13.33 18.09 13.66 9.18 14 0 C16.97 0 19.94 0 23 0 C23.08719631 4.56237931 23.14045922 9.12454386 23.1875 13.6875 C23.21263672 14.98107422 23.23777344 16.27464844 23.26367188 17.60742188 C23.27333984 18.85458984 23.28300781 20.10175781 23.29296875 21.38671875 C23.3086792 22.53358154 23.32438965 23.68044434 23.34057617 24.86206055 C22.85023096 29.37991501 21.26251732 31.98297216 17.75 34.8125 C14.1888795 36.35025658 11.85081154 36.47290668 8 36 C4.29609979 33.97333762 2.34636989 32.51955484 0 29 C-0.22705078 25.99731445 -0.22705078 25.99731445 -0.1953125 22.36328125 C-0.18886719 21.06455078 -0.18242187 19.76582031 -0.17578125 18.42773438 C-0.1590706 17.05598693 -0.14214071 15.68424214 -0.125 14.3125 C-0.11496674 12.92904282 -0.10584149 11.54557873 -0.09765625 10.16210938 C-0.07404967 6.77456548 -0.04112037 3.38736928 0 0 Z " fill="#F1F9FD" transform="translate(333,113)"/>
<path d="M0 0 C2.97 0 5.94 0 9 0 C10.32 2.64 11.64 5.28 13 8 C13.99 5.36 14.98 2.72 16 0 C18.97 0 21.94 0 25 0 C24.39910331 3.59259509 23.38537928 6.56906492 21.875 9.875 C20.03849674 14.41263762 19.59806519 17.18084909 21 22 C21.99119209 24.332685 23.02823786 26.61885379 24.16015625 28.88671875 C25 31 25 31 25 35 C22.36 35 19.72 35 17 35 C15.68 32.03 14.36 29.06 13 26 C10.525 30.455 10.525 30.455 8 35 C5.36 35 2.72 35 0 35 C0.40184807 31.08198132 1.37655161 28.10380939 3.125 24.625 C5.15205256 20.20099477 5.43277149 16.67208094 4 12 C3.02900078 9.6095481 1.98877278 7.29059296 0.83984375 4.98046875 C0 3 0 3 0 0 Z " fill="#EEF8FC" transform="translate(305,113)"/>
<path d="M0 0 C4.0923138 0.04257284 5.4390492 0.16769947 8.9375 2.5 C11.01035293 5.78797361 11.19359263 7.56010342 10.75 11.375 C7.375 11.5625 7.375 11.5625 3.75 11.375 C3.09 10.385 2.43 9.395 1.75 8.375 C0.76 8.375 -0.23 8.375 -1.25 8.375 C-0.90056464 11.17048289 -0.53271047 12.1497327 1.7109375 13.9375 C2.50757813 14.411875 3.30421875 14.88625 4.125 15.375 C7.43705533 17.36007551 9.71889396 19.04962449 11.75 22.375 C12.27795493 26.5232173 12.22613145 28.60978874 10 32.1875 C6.4933279 35.59676454 4.81674084 36.27176702 -0.125 36.75 C-4.41440907 36.65378896 -6.93790347 35.12161664 -10.25 32.375 C-11.60439668 29.66620665 -11.31501451 27.36566732 -11.25 24.375 C-8.61 24.375 -5.97 24.375 -3.25 24.375 C-2.92 25.365 -2.59 26.355 -2.25 27.375 C-0.93 27.375 0.39 27.375 1.75 27.375 C1.75 26.385 1.75 25.395 1.75 24.375 C-0.64570385 22.47821384 -3.18759697 20.92093438 -5.76953125 19.2890625 C-9.37369601 16.50789599 -11.00376583 13.85240503 -11.75 9.375 C-11.08225814 5.36854883 -9.28135163 3.9627392 -6.25 1.375 C-4.53055699 -0.34444301 -2.34584777 0.08154016 0 0 Z " fill="#EEF8FC" transform="translate(370.25,112.625)"/>
<path d="M0 0 C6.74701542 1.12450257 6.74701542 1.12450257 9.79882812 2.30688477 C10.47973511 2.56707901 11.16064209 2.82727325 11.86218262 3.09535217 C12.57797485 3.37455002 13.29376709 3.65374786 14.03125 3.94140625 C15.57933942 4.53082925 17.12751928 5.12001477 18.67578125 5.70898438 C21.09306287 6.63592855 23.5090563 7.56600628 25.92333984 8.50073242 C28.26860604 9.40626178 30.61828767 10.29946788 32.96875 11.19140625 C33.68454224 11.47262833 34.40033447 11.7538504 35.13781738 12.04359436 C42.54572103 14.8400747 47.31044892 14.22772816 54.515625 11.33984375 C55.21266541 11.07111954 55.90970581 10.80239532 56.62786865 10.52552795 C58.83905053 9.67228702 61.04485596 8.806215 63.25 7.9375 C65.46972129 7.0660841 67.69040805 6.19772784 69.91497803 5.33876038 C71.29570227 4.80542821 72.67363667 4.26480588 74.04840088 3.71629333 C75.67758161 3.08595587 77.33716111 2.53527752 79 2 C79.99 2.495 79.99 2.495 81 3 C79.38032773 6.23934454 75.94100762 6.82483916 72.7109375 8.07421875 C71.97428864 8.36230911 71.23763977 8.65039948 70.47866821 8.94721985 C68.91482814 9.55529726 67.34945792 10.15945165 65.78271484 10.76000977 C63.39906242 11.67823077 61.02593968 12.62059446 58.65234375 13.56445312 C57.13079402 14.1525592 55.60867495 14.73919482 54.0859375 15.32421875 C53.38149506 15.60746506 52.67705261 15.89071136 51.95126343 16.18254089 C44.88493668 18.83276822 39.47325463 17.38543418 32.515625 14.75 C31.33355469 14.3065625 30.15148437 13.863125 28.93359375 13.40625 C27.71800781 12.9421875 26.50242188 12.478125 25.25 12 C22.81778033 11.08314232 20.38549196 10.16646685 17.953125 9.25 C16.34679199 8.63898438 16.34679199 8.63898438 14.70800781 8.015625 C12.81869931 7.30704915 10.9142648 6.63808827 9 6 C9.0603174 8.87714013 9.14745596 11.74930854 9.25 14.625 C9.26417969 15.43324219 9.27835938 16.24148437 9.29296875 17.07421875 C9.51449318 22.52371977 10.49828708 25.61627669 14 30 C14.66 30.99 15.32 31.98 16 33 C15.01 33 14.02 33 13 33 C11.3125 31 11.3125 31 10 29 C9.505 31.475 9.505 31.475 9 34 C6.23735711 34.59732819 3.83967231 35 1 35 C0.505 17.675 0.505 17.675 0 0 Z " fill="#2074DD" transform="translate(105,56)"/>
<path d="M0 0 C2.97 0 5.94 0 9 0 C9.33 12.54 9.66 25.08 10 38 C11.32 38.66 12.64 39.32 14 40 C14.04254356 41.99954746 14.04080783 44.00041636 14 46 C13 47 13 47 9.1875 47.25 C6.3432248 47.21431913 5.12167703 47.0655184 2.5625 45.6875 C0.05283197 42.97705853 -0.12438448 40.42495635 -0.11352539 36.89575195 C-0.11344986 36.07512772 -0.11337433 35.25450348 -0.11329651 34.40901184 C-0.10813522 33.52767075 -0.10297394 32.64632965 -0.09765625 31.73828125 C-0.0962413 30.83248825 -0.09482635 29.92669525 -0.09336853 28.99345398 C-0.08777001 26.09976909 -0.07521781 23.20616151 -0.0625 20.3125 C-0.05748481 18.35091258 -0.05292193 16.38932394 -0.04882812 14.42773438 C-0.03780107 9.61845979 -0.02053747 4.809243 0 0 Z " fill="#F5FBFC" transform="translate(166,101)"/>
<path d="M0 0 C0 0.66 0 1.32 0 2 C-0.99 2 -1.98 2 -3 2 C-2.34 2.66 -1.68 3.32 -1 4 C-0.505 4.99 -0.505 4.99 0 6 C1.98 6 3.96 6 6 6 C6 6.66 6 7.32 6 8 C3.36 8 0.72 8 -2 8 C-1.90640973 13.76607392 -1.80030284 19.53173072 -1.68261719 25.29736328 C-1.64434673 27.2585622 -1.60949046 29.21983084 -1.578125 31.18115234 C-1.5324326 34.00122997 -1.474445 36.82082838 -1.4140625 39.640625 C-1.40251129 40.51680481 -1.39096008 41.39298462 -1.37905884 42.29571533 C-1.35918915 43.11626404 -1.33931946 43.93681274 -1.31884766 44.78222656 C-1.30552399 45.50170471 -1.29220032 46.22118286 -1.2784729 46.96246338 C-0.95330486 49.34166003 -0.25392654 50.95879833 1 53 C3.28705831 54.14352916 4.59264762 54.10334439 7.125 54.0625 C9.043125 54.0315625 9.043125 54.0315625 11 54 C11 52.02 11 50.04 11 48 C9.68 47.34 8.36 46.68 7 46 C7 33.79 7 21.58 7 9 C7.33 9 7.66 9 8 9 C8.89587605 21.3502912 9.11522956 33.61922367 9 46 C9.99 46 10.98 46 12 46 C12.33 37.75 12.66 29.5 13 21 C13.33 21 13.66 21 14 21 C14.01401855 22.18758911 14.01401855 22.18758911 14.02832031 23.39916992 C14.08209344 26.99590708 14.16572963 30.59135352 14.25 34.1875 C14.26417969 35.43337891 14.27835938 36.67925781 14.29296875 37.96289062 C14.32519531 39.16494141 14.35742188 40.36699219 14.390625 41.60546875 C14.41157227 42.71043701 14.43251953 43.81540527 14.45410156 44.95385742 C15.26848412 49.4981558 17.82488194 51.82488194 21 55 C16.25735929 55.61195364 11.52962184 56.11873155 6.75 56.3125 C5.96109375 56.34988281 5.1721875 56.38726562 4.359375 56.42578125 C0.82796235 55.78848989 -0.55860821 54.64898888 -3 52 C-3.70609274 48.7332811 -3.58165781 45.53173966 -3.48828125 42.203125 C-3.48120651 41.25435486 -3.47413177 40.30558472 -3.46684265 39.32806396 C-3.43887994 36.30123657 -3.37613758 33.27626709 -3.3125 30.25 C-3.28741957 28.19664132 -3.26460596 26.14325361 -3.24414062 24.08984375 C-3.18904694 19.05918126 -3.10276083 14.02990548 -3 9 C-3.66 9 -4.32 9 -5 9 C-4.67 7.35 -4.34 5.7 -4 4 C-7.63 4.33 -11.26 4.66 -15 5 C-13.35 5.66 -11.7 6.32 -10 7 C-8.6875 9.625 -8.6875 9.625 -8 12 C-8.99 11.34 -9.98 10.68 -11 10 C-15.24033993 7.57940109 -18.16157173 7.53176501 -23 8 C-25.88214887 8.88214887 -25.88214887 8.88214887 -28 10 C-28 9.01 -28 8.02 -28 7 C-26.68 7 -25.36 7 -24 7 C-24.33 6.34 -24.66 5.68 -25 5 C-26.86492402 4.61004898 -26.86492402 4.61004898 -29 4.5 C-31.1875 4.34375 -31.1875 4.34375 -33 4 C-33.33 3.34 -33.66 2.68 -34 2 C-33.2793335 2.01047363 -32.55866699 2.02094727 -31.81616211 2.03173828 C-28.52331079 2.07353715 -25.2305155 2.09940188 -21.9375 2.125 C-20.80376953 2.14175781 -19.67003906 2.15851563 -18.50195312 2.17578125 C-12.1195466 2.21299645 -6.04907106 0 0 0 Z " fill="#2A71CA" transform="translate(168,93)"/>
<path d="M0 0 C6.02485962 0.12551791 8.99014485 2.03994442 13.33203125 6.171875 C17.51378985 10.75516077 17 13.62601855 17 20 C12.05 20 7.1 20 2 20 C1.67 21.65 1.34 23.3 1 25 C0.01 25 -0.98 25 -2 25 C-2 21.7 -2 18.4 -2 15 C-1.34 14.67 -0.68 14.34 0 14 C0 9.38 0 4.76 0 0 Z " fill="#0D458B" transform="translate(104,91)"/>
<path d="M0 0 C0.02722517 2.20826378 0.04649729 4.41662638 0.0625 6.625 C0.07410156 7.85476562 0.08570312 9.08453125 0.09765625 10.3515625 C0 14 0 14 -1 20 C-6.28 20 -11.56 20 -17 20 C-17 13.70324807 -16.93683977 12.01710128 -14 7 C-13.34 7 -12.68 7 -12 7 C-11.773125 6.401875 -11.54625 5.80375 -11.3125 5.1875 C-8.55674701 0.59457835 -5.05971337 -0.16950464 0 0 Z " fill="#0D4489" transform="translate(102,91)"/>
<path d="M0 0 C1.98 0 3.96 0 6 0 C7.0427673 2.17923253 8.05857402 4.36543804 9.0625 6.5625 C9.35705078 7.17158203 9.65160156 7.78066406 9.95507812 8.40820312 C12.65555824 14.41280009 11.85863224 18.45788553 9.80859375 24.52734375 C9.35613281 25.65269531 8.90367187 26.77804688 8.4375 27.9375 C7.98246094 29.08089844 7.52742188 30.22429687 7.05859375 31.40234375 C6.70925781 32.25957031 6.35992187 33.11679688 6 34 C5.01 33.67 4.02 33.34 3 33 C2.67 33.66 2.34 34.32 2 35 C-0.28515625 35.4140625 -0.28515625 35.4140625 -3.0625 35.625 C-3.98160156 35.69976562 -4.90070313 35.77453125 -5.84765625 35.8515625 C-6.55792969 35.90054688 -7.26820313 35.94953125 -8 36 C-7.10667969 35.55527344 -7.10667969 35.55527344 -6.1953125 35.1015625 C-0.66769784 32.61646262 -0.66769784 32.61646262 2.828125 27.9609375 C3.31435786 25.9951675 3.66709006 23.99745965 4 22 C0.56206661 22.18129815 0.56206661 22.18129815 -3 23 C-4.51294288 24.93597032 -4.51294288 24.93597032 -5 27 C-6.32 26.67 -7.64 26.34 -9 26 C-9 23.69 -9 21.38 -9 19 C-4.71 19 -0.42 19 4 19 C3.91277063 16.58164103 3.80588627 14.16686684 3.6875 11.75 C3.66494141 11.06808594 3.64238281 10.38617188 3.61914062 9.68359375 C3.39833396 5.54848704 2.90407 3.02085566 0 0 Z " fill="#2574D8" transform="translate(299,114)"/>
<path d="M0 0 C-0.33 1.32 -0.66 2.64 -1 4 C-10.48346015 4.04627819 -19.96688161 4.08184612 -29.45042992 4.10362434 C-33.85371251 4.11407518 -38.25691802 4.12825796 -42.66015625 4.15087891 C-46.90709824 4.17256112 -51.15396596 4.18455883 -55.40095901 4.18975449 C-57.02373042 4.19345858 -58.64649762 4.20069146 -60.26923752 4.21146011 C-62.53684117 4.2259138 -64.80413528 4.22798054 -67.07177734 4.22705078 C-68.36417328 4.231492 -69.65656921 4.23593323 -70.98812866 4.24050903 C-74 4 -74 4 -76 2 C-73.7574678 0.8787339 -72.48384748 0.84780644 -69.99462891 0.79467773 C-68.74764221 0.76476746 -68.74764221 0.76476746 -67.47546387 0.73425293 C-66.56832642 0.7175354 -65.66118896 0.70081787 -64.7265625 0.68359375 C-63.7828479 0.66276733 -62.8391333 0.64194092 -61.86682129 0.6204834 C-58.78629724 0.55431282 -55.7056863 0.49558627 -52.625 0.4375 C-50.52457534 0.3946853 -48.42415216 0.35179783 -46.32373047 0.30883789 C-30.8810095 0.00441632 -15.44571466 -0.13318804 0 0 Z " fill="#5198DF" transform="translate(244,167)"/>
<path d="M0 0 C1.11234512 -0.00021904 1.11234512 -0.00021904 2.24716187 -0.0004425 C4.70370385 0.00025539 7.16017045 0.00804206 9.61669922 0.01586914 C11.31777912 0.01773376 13.01885956 0.01915745 14.71994019 0.02015686 C19.20145139 0.02397861 23.68293029 0.03380599 28.16442871 0.04486084 C32.73575402 0.05508231 37.30708453 0.05965606 41.87841797 0.06469727 C50.85108843 0.07542854 59.82373489 0.09250088 68.79638672 0.11352539 C68.79638672 1.10352539 68.79638672 2.09352539 68.79638672 3.11352539 C58.92177884 3.1598013 49.04719662 3.19537038 39.17250252 3.21714973 C34.58761906 3.22760106 30.00280961 3.24178474 25.41796875 3.2644043 C20.99596298 3.28608475 16.57402853 3.29808385 12.15197372 3.30327988 C10.46221671 3.30698429 8.77246374 3.31421776 7.08273697 3.3249855 C4.72173783 3.33943682 2.36103602 3.34150603 0 3.34057617 C-0.70346558 3.34776672 -1.40693115 3.35495728 -2.13171387 3.36236572 C-6.97550896 3.34162971 -6.97550896 3.34162971 -9.20361328 1.11352539 C-6.24383744 -0.36636253 -3.24383319 -0.0165786 0 0 Z " fill="#589DE2" transform="translate(259.20361328125,166.886474609375)"/>
<path d="M0 0 C-1.61967227 3.23934454 -5.05899238 3.82483916 -8.2890625 5.07421875 C-9.3940358 5.50635429 -9.3940358 5.50635429 -10.52133179 5.94721985 C-12.08517186 6.55529726 -13.65054208 7.15945165 -15.21728516 7.76000977 C-17.60093758 8.67823077 -19.97406032 9.62059446 -22.34765625 10.56445312 C-23.86920598 11.1525592 -25.39132505 11.73919482 -26.9140625 12.32421875 C-27.61850494 12.60746506 -28.32294739 12.89071136 -29.04873657 13.18254089 C-36.11506332 15.83276822 -41.52674537 14.38543418 -48.484375 11.75 C-49.66644531 11.3065625 -50.84851563 10.863125 -52.06640625 10.40625 C-53.28199219 9.9421875 -54.49757812 9.478125 -55.75 9 C-58.18221967 8.08314232 -60.61450804 7.16646685 -63.046875 6.25 C-64.11776367 5.84265625 -65.18865234 5.4353125 -66.29199219 5.015625 C-68.18130069 4.30704915 -70.0857352 3.63808827 -72 3 C-72 8.28 -72 13.56 -72 19 C-72.33 19 -72.66 19 -73 19 C-73.02690104 16.20826945 -73.04679053 13.41679652 -73.0625 10.625 C-73.07087891 9.8309375 -73.07925781 9.036875 -73.08789062 8.21875 C-73.11328125 2.2265625 -73.11328125 2.2265625 -72 0 C-63.77759266 2.33565658 -55.83056519 5.22736302 -47.859375 8.30273438 C-46.93125 8.65013672 -46.003125 8.99753906 -45.046875 9.35546875 C-44.22026367 9.67153076 -43.39365234 9.98759277 -42.54199219 10.31323242 C-36.60194269 11.91804987 -32.04283107 10.56771139 -26.484375 8.33984375 C-25.78733459 8.07111954 -25.09029419 7.80239532 -24.37213135 7.52552795 C-22.16094947 6.67228702 -19.95514404 5.806215 -17.75 4.9375 C-15.53027871 4.0660841 -13.30959195 3.19772784 -11.08502197 2.33876038 C-9.70429773 1.80542821 -8.32636333 1.26480588 -6.95159912 0.71629333 C-2.22494302 -1.11247151 -2.22494302 -1.11247151 0 0 Z " fill="#3878C7" transform="translate(186,59)"/>
<path d="M0 0 C0.01981934 0.85754883 0.03963867 1.71509766 0.06005859 2.59863281 C0.13829521 5.78947642 0.22499343 8.9799474 0.31738281 12.17041016 C0.35559338 13.54955243 0.39046002 14.92879167 0.421875 16.30810547 C0.46769624 18.29416967 0.52666263 20.27991679 0.5859375 22.265625 C0.6173584 23.45961914 0.6487793 24.65361328 0.68115234 25.88378906 C0.9803287 28.80774539 1.47461838 30.52727611 3 33 C1.68 32.34 0.36 31.68 -1 31 C-1.66 32.32 -2.32 33.64 -3 35 C-3.82196606 32.98299841 -4.63213217 30.96118631 -5.4375 28.9375 C-5.88996094 27.81214844 -6.34242188 26.68679687 -6.80859375 25.52734375 C-9.13889175 18.62813361 -9.30156577 14.21866523 -6.1875 7.625 C-5.91357422 6.99722656 -5.63964844 6.36945313 -5.35742188 5.72265625 C-2.78037257 0 -2.78037257 0 0 0 Z " fill="#1872E4" transform="translate(333,113)"/>
<path d="M0 0 C1.98 0 3.96 0 6 0 C6 0.66 6 1.32 6 2 C4.35 1.67 2.7 1.34 1 1 C1.16298584 2.01457275 1.32597168 3.02914551 1.49389648 4.07446289 C1.96309741 7.71376909 2.11454486 11.14376511 2.09765625 14.80859375 C2.09443359 16.04931641 2.09121094 17.29003906 2.08789062 18.56835938 C2.07951172 19.84517578 2.07113281 21.12199219 2.0625 22.4375 C2.05798828 23.74138672 2.05347656 25.04527344 2.04882812 26.38867188 C2.03709251 29.59249552 2.02067363 32.79622363 2 36 C1.34 36 0.68 36 0 36 C0.33 40.95 0.66 45.9 1 51 C0.01 51 -0.98 51 -2 51 C-2 46.05 -2 41.1 -2 36 C-2.66 36 -3.32 36 -4 36 C-4.08674429 31.54178834 -4.14030513 27.08379196 -4.1875 22.625 C-4.21263672 21.35398437 -4.23777344 20.08296875 -4.26367188 18.7734375 C-4.27333984 17.56171875 -4.28300781 16.35 -4.29296875 15.1015625 C-4.3086792 13.98088379 -4.32438965 12.86020508 -4.34057617 11.70556641 C-4.22818604 10.81272949 -4.1157959 9.91989258 -4 9 C-3.01 8.34 -2.02 7.68 -1 7 C-0.26393501 3.43230448 -0.26393501 3.43230448 0 0 Z " fill="#DDEEFA" transform="translate(104,55)"/>
<path d="M0 0 C2.4375 0.375 2.4375 0.375 5 1 C6.41733631 3.83467262 6.02556089 6.12287695 5.9140625 9.28515625 C5.87023437 10.53748047 5.82640625 11.78980469 5.78125 13.08007812 C5.7296875 14.39427734 5.678125 15.70847656 5.625 17.0625 C5.58117187 18.38056641 5.53734375 19.69863281 5.4921875 21.05664062 C5.12809741 30.87190259 5.12809741 30.87190259 4 32 C2.33382885 32.04063832 0.66611905 32.042721 -1 32 C-1.02909769 27.93751511 -1.04683174 23.87505714 -1.0625 19.8125 C-1.07087891 18.66201172 -1.07925781 17.51152344 -1.08789062 16.32617188 C-1.09111328 15.21435547 -1.09433594 14.10253906 -1.09765625 12.95703125 C-1.10289307 11.93585205 -1.10812988 10.91467285 -1.11352539 9.86254883 C-1.00505958 7.12757758 -0.58479962 4.66729912 0 2 C0 1.34 0 0.68 0 0 Z " fill="#F9FCFD" transform="translate(241,115)"/>
<path d="M0 0 C7.51044081 -0.02316465 15.02087793 -0.04093616 22.53134632 -0.05181217 C26.01871311 -0.05703196 29.50605547 -0.06411324 32.9934082 -0.07543945 C37.00211828 -0.08837754 41.01080267 -0.09323569 45.01953125 -0.09765625 C46.27272659 -0.10281754 47.52592194 -0.10797882 48.8170929 -0.11329651 C50.55855843 -0.11340981 50.55855843 -0.11340981 52.33520508 -0.11352539 C53.35890701 -0.115746 54.38260895 -0.11796661 55.43733215 -0.12025452 C58 0 58 0 61 1 C60.67 1.99 60.34 2.98 60 4 C59.34 3.67 58.68 3.34 58 3 C56.1514292 2.90898388 54.29953621 2.88246854 52.44873047 2.88647461 C51.28767792 2.88655014 50.12662537 2.88662567 48.9303894 2.88670349 C47.04285446 2.89444542 47.04285446 2.89444542 45.1171875 2.90234375 C43.83264679 2.9037587 42.54810608 2.90517365 41.22463989 2.90663147 C37.80843158 2.91045089 34.39226574 2.92027627 30.97607422 2.93133545 C27.49056574 2.94156193 24.0050504 2.94613174 20.51953125 2.95117188 C13.67967005 2.96189904 6.83983706 2.97896858 0 3 C0 2.01 0 1.02 0 0 Z M57 4 C57.66 4 58.32 4 59 4 C59 4.66 59 5.32 59 6 C58.34 6 57.68 6 57 6 C57 5.34 57 4.68 57 4 Z " fill="#539AE0" transform="translate(103,165)"/>
<path d="M0 0 C1.14072968 0.00007553 2.28145935 0.00015106 3.45675659 0.00022888 C4.6725943 0.00539017 5.88843201 0.01055145 7.14111328 0.01586914 C8.39779816 0.01728409 9.65448303 0.01869904 10.94924927 0.02015686 C14.27334518 0.02479465 17.5973712 0.03376359 20.92144775 0.04486084 C24.32018432 0.05513138 27.71892814 0.05966652 31.11767578 0.06469727 C37.77394495 0.0757084 44.43018133 0.09243317 51.08642578 0.11352539 C51.08642578 1.10352539 51.08642578 2.09352539 51.08642578 3.11352539 C43.16757 3.15981485 35.24877052 3.19537721 27.329813 3.21714973 C23.65293228 3.22759813 19.97614395 3.24177641 16.29931641 3.2644043 C12.75262923 3.2860953 9.20603106 3.29808606 5.65928268 3.30327988 C4.30445326 3.30698239 2.94962884 3.31421228 1.59483719 3.3249855 C-0.29903179 3.33944987 -2.19298986 3.34034188 -4.08691406 3.34057617 C-5.16613129 3.3450174 -6.24534851 3.34945862 -7.35726929 3.35403442 C-9.91357422 3.11352539 -9.91357422 3.11352539 -11.91357422 1.11352539 C-7.88822029 0.35922395 -4.09319487 -0.00909599 0 0 Z " fill="#60A3E4" transform="translate(421.91357421875,168.886474609375)"/>
<path d="M0 0 C9.05776647 -0.04634069 18.11549213 -0.08187801 27.17335129 -0.10362434 C31.379282 -0.11406149 35.5851316 -0.12821943 39.79101562 -0.15087891 C43.84993538 -0.17260975 47.90877711 -0.18456915 51.96775055 -0.18975449 C53.51630125 -0.19344981 55.06484768 -0.20066583 56.61336517 -0.21146011 C58.78237638 -0.22597835 60.95106521 -0.22797782 63.12011719 -0.22705078 C64.35477722 -0.231492 65.58943726 -0.23593323 66.86151123 -0.24050903 C69.83878492 -0.01235425 71.50183979 0.43140246 74 2 C34.81535625 3.09942736 34.81535625 3.09942736 17.07131958 3.23217773 C15.08771806 3.24977627 13.10426404 3.28202071 11.12084961 3.31445312 C9.9375708 3.31896484 8.75429199 3.32347656 7.53515625 3.328125 C6.507854 3.3374707 5.48055176 3.34681641 4.42211914 3.35644531 C3.62281982 3.23881836 2.82352051 3.12119141 2 3 C1.34 2.01 0.68 1.02 0 0 Z " fill="#6BACE7" transform="translate(335,170)"/>
<path d="M0 0 C0.33 0 0.66 0 1 0 C1.12375 0.804375 1.2475 1.60875 1.375 2.4375 C1.684375 3.7059375 1.684375 3.7059375 2 5 C2.66 5.33 3.32 5.66 4 6 C4.42925781 6.76699219 4.85851562 7.53398438 5.30078125 8.32421875 C7.24843097 11.39120739 9.17365847 12.81631925 12.1875 14.8125 C13.08855469 15.41707031 13.98960937 16.02164063 14.91796875 16.64453125 C15.60503906 17.09183594 16.29210937 17.53914063 17 18 C16.67 19.32 16.34 20.64 16 22 C14.35 21.67 12.7 21.34 11 21 C11 20.01 11 19.02 11 18 C8.36 18 5.72 18 3 18 C3.98315865 23.93482007 3.98315865 23.93482007 7.625 28.5 C8.40875 28.995 9.1925 29.49 10 30 C7.625 29.75 7.625 29.75 5 29 C3.6875 26.9375 3.6875 26.9375 3 25 C1.02 25.66 -0.96 26.32 -3 27 C-2.67854004 26.28432861 -2.35708008 25.56865723 -2.02587891 24.83129883 C-0.98226986 21.95106702 -0.69284634 19.74612078 -0.5859375 16.69921875 C-0.54726563 15.72275391 -0.50859375 14.74628906 -0.46875 13.74023438 C-0.4378125 12.73283203 -0.406875 11.72542969 -0.375 10.6875 C-0.33632813 9.66076172 -0.29765625 8.63402344 -0.2578125 7.57617188 C-0.16385103 5.05095735 -0.0781846 2.52574408 0 0 Z " fill="#317AD5" transform="translate(356,119)"/>
<path d="M0 0 C4.70588235 0.70588235 4.70588235 0.70588235 6 2 C6.08631874 3.34267413 6.10706473 4.68974322 6.09765625 6.03515625 C6.09282227 7.24848633 6.09282227 7.24848633 6.08789062 8.48632812 C6.07951172 9.33646484 6.07113281 10.18660156 6.0625 11.0625 C6.05798828 11.91650391 6.05347656 12.77050781 6.04882812 13.65039062 C6.03700373 15.76695663 6.01906769 17.88348685 6 20 C3.69 20 1.38 20 -1 20 C-1.02888514 16.85418577 -1.04675923 13.70840531 -1.0625 10.5625 C-1.07087891 9.66466797 -1.07925781 8.76683594 -1.08789062 7.84179688 C-1.09111328 6.98779297 -1.09433594 6.13378906 -1.09765625 5.25390625 C-1.10551147 4.06776733 -1.10551147 4.06776733 -1.11352539 2.85766602 C-1 1 -1 1 0 0 Z " fill="#2775D6" transform="translate(147,109)"/>
<path d="M0 0 C1.8046875 1.52734375 1.8046875 1.52734375 3 3 C0.03 2.505 0.03 2.505 -3 2 C-2.67 5.96 -2.34 9.92 -2 14 C-3.98 14 -5.96 14 -8 14 C-11 8.375 -11 8.375 -11 5 C-11.99 5 -12.98 5 -14 5 C-14.33 6.98 -14.66 8.96 -15 11 C-15.33 11 -15.66 11 -16 11 C-15.77407627 7.08398866 -15.53572471 4.67397624 -13.0625 1.5625 C-8.81107806 -0.60659283 -4.69358631 -0.88303065 0 0 Z " fill="#EBF9FD" transform="translate(297,113)"/>
<path d="M0 0 C0.66 0.66 1.32 1.32 2 2 C-0.64 1.67 -3.28 1.34 -6 1 C-6 1.66 -6 2.32 -6 3 C-8.31 3.66 -10.62 4.32 -13 5 C-14.1707449 9.2141976 -14.22675604 13.35507655 -14.31640625 17.703125 C-14.33718735 18.54091492 -14.35796844 19.37870483 -14.37937927 20.24188232 C-14.4446255 22.91117356 -14.50364358 25.58056098 -14.5625 28.25 C-14.60570894 30.06250984 -14.64932399 31.87501005 -14.69335938 33.6875 C-14.80028129 38.12490209 -14.90161866 42.56240068 -15 47 C-12.69 47 -10.38 47 -8 47 C-8 43.7 -8 40.4 -8 37 C-7.67 37 -7.34 37 -7 37 C-7 40.63 -7 44.26 -7 48 C-10.3 48 -13.6 48 -17 48 C-17.09930776 42.71644498 -17.17167464 37.43344016 -17.21972656 32.14916992 C-17.23977001 30.35382618 -17.26701251 28.55854713 -17.30175781 26.76342773 C-17.35059849 24.1741535 -17.3730412 21.5857466 -17.390625 18.99609375 C-17.41127014 18.20101913 -17.43191528 17.40594452 -17.45318604 16.58677673 C-17.45544021 10.91441003 -16.2364976 7.67813549 -13 3 C-8.84514728 -0.57778984 -5.25163698 -0.43046205 0 0 Z " fill="#BEDEF6" transform="translate(153,100)"/>
<path d="M0 0 C13.2 0 26.4 0 40 0 C40 0.33 40 0.66 40 1 C28.78 1 17.56 1 6 1 C6 1.66 6 2.32 6 3 C6.99 3.33 7.98 3.66 9 4 C8.67 4.66 8.34 5.32 8 6 C5.4375 6.625 5.4375 6.625 3 7 C3 6.34 3 5.68 3 5 C-11.19 4.67 -25.38 4.34 -40 4 C-40 3.67 -40 3.34 -40 3 C-26.14 3 -12.28 3 2 3 C2 2.34 2 1.68 2 1 C1.34 0.67 0.68 0.34 0 0 Z " fill="#1D71D9" transform="translate(328,168)"/>
<path d="M0 0 C2.97 0 5.94 0 9 0 C9.01458252 1.14065918 9.02916504 2.28131836 9.04418945 3.45654297 C9.10206727 7.67984717 9.17929977 11.90261225 9.26245117 16.12548828 C9.29575026 17.9548265 9.32376657 19.7842687 9.34643555 21.61376953 C9.37989077 24.24036056 9.43219963 26.86599441 9.48828125 29.4921875 C9.49467117 30.31306854 9.5010611 31.13394958 9.50764465 31.97970581 C9.53942217 34.52614374 9.53942217 34.52614374 10 38 C10.99 38.66 11.98 39.32 13 40 C10.525 40.495 10.525 40.495 8 41 C6.73812143 37.2143643 6.98342203 33.76317551 7.12109375 29.83203125 C7.14470474 29.03721848 7.16831573 28.2424057 7.19264221 27.42350769 C7.26918101 24.88631901 7.35324728 22.3494431 7.4375 19.8125 C7.49073049 18.09181215 7.54347083 16.37110906 7.59570312 14.65039062 C7.72478289 10.43339589 7.86061391 6.21666615 8 2 C5.69 2 3.38 2 1 2 C1 14.87 1 27.74 1 41 C0.67 41 0.34 41 0 41 C0 27.47 0 13.94 0 0 Z " fill="#E3FBFE" transform="translate(166,101)"/>
<path d="M0 0 C0.66 0 1.32 0 2 0 C1.76228882 0.80872559 1.76228882 0.80872559 1.51977539 1.63378906 C0.91090977 4.40557189 0.78489684 7.02288851 0.68359375 9.859375 C0.64169922 10.97441406 0.59980469 12.08945313 0.55664062 13.23828125 C0.49766602 14.97658203 0.49766602 14.97658203 0.4375 16.75 C0.37272461 18.51150391 0.37272461 18.51150391 0.30664062 20.30859375 C0.20065206 23.20561451 0.09858362 26.10271935 0 29 C1.65 28.67 3.3 28.34 5 28 C5.02505615 27.42556152 5.0501123 26.85112305 5.07592773 26.25927734 C5.19269875 23.63100279 5.31505419 21.00301605 5.4375 18.375 C5.49647461 17.01955078 5.49647461 17.01955078 5.55664062 15.63671875 C5.77578458 11.01783854 6.1008851 6.54846364 7 2 C7.33 2 7.66 2 8 2 C8 11.24 8 20.48 8 30 C5.03 30 2.06 30 -1 30 C-1.33 21.42 -1.66 12.84 -2 4 C-3.32 4 -4.64 4 -6 4 C-6.33 3.01 -6.66 2.02 -7 1 C-4.69 1.33 -2.38 1.66 0 2 C0 1.34 0 0.68 0 0 Z " fill="#D3EBF9" transform="translate(240,118)"/>
<path d="M0 0 C0.33 0 0.66 0 1 0 C1 5.28 1 10.56 1 16 C1.66 16 2.32 16 3 16 C3 10.72 3 5.44 3 0 C3.66 0 4.32 0 5 0 C5 8.58 5 17.16 5 26 C3.68 26.33 2.36 26.66 1 27 C0 26 0 26 -0.11352539 23.49975586 C-0.10828857 22.41573486 -0.10305176 21.33171387 -0.09765625 20.21484375 C-0.09443359 19.04501953 -0.09121094 17.87519531 -0.08789062 16.66992188 C-0.07951172 15.43822266 -0.07113281 14.20652344 -0.0625 12.9375 C-0.05798828 11.70193359 -0.05347656 10.46636719 -0.04882812 9.19335938 C-0.03699608 6.12885883 -0.02051173 3.06445279 0 0 Z " fill="#2571CF" transform="translate(342,114)"/>
<path d="M0 0 C0 0.66 0 1.32 0 2 C-1.65002828 3.35386936 -3.3174387 4.68678142 -5 6 C-6.63657754 9.27315509 -6.2430807 12.90622231 -6.31640625 16.5078125 C-6.33718735 17.34843231 -6.35796844 18.18905212 -6.37937927 19.05514526 C-6.44485439 21.74501235 -6.5037502 24.43497843 -6.5625 27.125 C-6.60568716 28.94662489 -6.64930152 30.76823971 -6.69335938 32.58984375 C-6.80053368 37.05979394 -6.90180685 41.52984386 -7 46 C-4.69 46 -2.38 46 0 46 C0 34.45 0 22.9 0 11 C0.33 11 0.66 11 1 11 C1 22.88 1 34.76 1 47 C-1.97 47 -4.94 47 -8 47 C-8.07427668 41.3949675 -8.12866208 35.79022289 -8.16479492 30.18481445 C-8.17986128 28.27883919 -8.20031824 26.37289848 -8.22631836 24.46704102 C-8.26279642 21.72403424 -8.27974792 18.98148672 -8.29296875 16.23828125 C-8.30845261 15.38913651 -8.32393646 14.53999176 -8.33988953 13.66511536 C-8.34122413 8.95053802 -8.10168248 5.80485753 -5 2 C-2 0 -2 0 0 0 Z " fill="#DAF6FF" transform="translate(260,101)"/>
<path d="M0 0 C10.11129194 3.4724583 20.20037123 6.99521104 30.1875 10.8125 C30.95884277 11.1019751 31.73018555 11.3914502 32.52490234 11.68969727 C37.88203853 13.76407707 37.88203853 13.76407707 39 16 C36.03 16.99 33.06 17.98 30 19 C29.67 18.34 29.34 17.68 29 17 C29.99 17 30.98 17 32 17 C32 16.01 32 15.02 32 14 C29.69 13.67 27.38 13.34 25 13 C25 12.34 25 11.68 25 11 C24.43756592 10.8664209 23.87513184 10.7328418 23.2956543 10.59521484 C19.06313999 9.49781296 14.94949094 8.03408066 10.8125 6.625 C9.88501953 6.32078125 8.95753906 6.0165625 8.00195312 5.703125 C7.12087891 5.40148438 6.23980469 5.09984375 5.33203125 4.7890625 C4.52483643 4.51787598 3.7176416 4.24668945 2.88598633 3.96728516 C1 3 1 3 0 0 Z " fill="#DBF2FD" transform="translate(179,30)"/>
<path d="M0 0 C2.97 0 5.94 0 9 0 C9 6.27 9 12.54 9 19 C8.67 19 8.34 19 8 19 C8 13.39 8 7.78 8 2 C6.35 2.33 4.7 2.66 3 3 C3.02320313 3.79921875 3.04640625 4.5984375 3.0703125 5.421875 C3.19776662 13.17836874 2.53394297 20.39876473 1 28 C0.67 28 0.34 28 0 28 C0 18.76 0 9.52 0 0 Z " fill="#CFEAFB" transform="translate(182,113)"/>
<path d="M0 0 C1.32 0.33 2.64 0.66 4 1 C4.12117188 1.63808594 4.24234375 2.27617188 4.3671875 2.93359375 C4.53476563 3.75988281 4.70234375 4.58617188 4.875 5.4375 C5.03742188 6.26121094 5.19984375 7.08492188 5.3671875 7.93359375 C5.68042969 8.95646484 5.68042969 8.95646484 6 10 C6.66 10.33 7.32 10.66 8 11 C7.67 19.58 7.34 28.16 7 37 C5.68 37.66 4.36 38.32 3 39 C3.16081055 38.46552246 3.32162109 37.93104492 3.48730469 37.38037109 C4.59393862 32.24242785 4.22800786 26.85912933 4.25 21.625 C4.270625 20.40554687 4.29125 19.18609375 4.3125 17.9296875 C4.31765625 16.74890625 4.3228125 15.568125 4.328125 14.3515625 C4.3374707 13.27729004 4.34681641 12.20301758 4.35644531 11.09619141 C3.94394031 7.51304865 2.76474 5.12210334 1 2 C0.67 1.34 0.34 0.68 0 0 Z " fill="#1D6ED6" transform="translate(116,96)"/>
<path d="M0 0 C1.48754006 0.73325207 2.96486192 1.48726078 4.4375 2.25 C5.67306641 2.87648437 5.67306641 2.87648437 6.93359375 3.515625 C9 5 9 5 9.78515625 7.171875 C9.85605469 7.77515625 9.92695313 8.3784375 10 9 C8.35 9.33 6.7 9.66 5 10 C4.67 8.68 4.34 7.36 4 6 C1.36 6 -1.28 6 -4 6 C-3.01684135 11.93482007 -3.01684135 11.93482007 0.625 16.5 C1.40875 16.995 2.1925 17.49 3 18 C0.11050316 17.68762196 -1.58633099 17.35661121 -3.8125 15.4375 C-5.55632063 11.8580787 -5.19791008 8.95820158 -5 5 C-3.02 4.67 -1.04 4.34 1 4 C0.67 2.68 0.34 1.36 0 0 Z " fill="#3579CE" transform="translate(363,131)"/>
<path d="M0 0 C6.6 0.33 13.2 0.66 20 1 C19.67 1.66 19.34 2.32 19 3 C19.78375 3.226875 20.5675 3.45375 21.375 3.6875 C24 5 24 5 25.3125 7.625 C25.6528125 8.800625 25.6528125 8.800625 26 10 C25.01 9.34 24.02 8.68 23 8 C18.75966007 5.57940109 15.83842827 5.53176501 11 6 C8.11785113 6.88214887 8.11785113 6.88214887 6 8 C6 7.01 6 6.02 6 5 C7.32 5 8.64 5 10 5 C9.67 4.34 9.34 3.68 9 3 C7.13507598 2.61004898 7.13507598 2.61004898 5 2.5 C2.8125 2.34375 2.8125 2.34375 1 2 C0.67 1.34 0.34 0.68 0 0 Z " fill="#3179D4" transform="translate(134,95)"/>
<path d="M0 0 C0.66 0 1.32 0 2 0 C2.33 5.28 2.66 10.56 3 16 C3.33 15.34 3.66 14.68 4 14 C4.66 14.33 5.32 14.66 6 15 C5.01 16.485 5.01 16.485 4 18 C3.63566627 20.12337771 3.63566627 20.12337771 3.5859375 22.44921875 C3.54726563 23.29677734 3.50859375 24.14433594 3.46875 25.01757812 C3.42234375 26.33918945 3.42234375 26.33918945 3.375 27.6875 C3.33632813 28.58017578 3.29765625 29.47285156 3.2578125 30.39257812 C3.16359782 32.5948462 3.07798412 34.79710722 3 37 C2.01 37.495 2.01 37.495 1 38 C0.98018066 37.12263184 0.96036133 36.24526367 0.93994141 35.34130859 C0.861524 32.06467423 0.77482117 28.78847139 0.68261719 25.51220703 C0.64449762 24.09822937 0.60961596 22.68416035 0.578125 21.27001953 C0.53210142 19.2291616 0.47417333 17.1889234 0.4140625 15.1484375 C0.3826416 13.92302246 0.3512207 12.69760742 0.31884766 11.43505859 C0.00051231 8.00551927 -0.77616816 5.20772767 -2 2 C-1.34 1.34 -0.68 0.68 0 0 Z " fill="#2270D2" transform="translate(277,102)"/>
<path d="M0 0 C1.98 0 3.96 0 6 0 C6 0.66 6 1.32 6 2 C4.35 1.67 2.7 1.34 1 1 C1.16371094 1.95003906 1.32742187 2.90007813 1.49609375 3.87890625 C2.16558293 8.56533049 2.10920922 13.21268306 2.0625 17.9375 C2.05798828 18.81212891 2.05347656 19.68675781 2.04882812 20.58789062 C2.03714834 22.72529047 2.01921689 24.86265463 2 27 C1.67 27 1.34 27 1 27 C1 22.05 1 17.1 1 12 C0.01 12.495 0.01 12.495 -1 13 C-1.47001033 16.27555608 -1.47001033 16.27555608 -1.625 20.0625 C-1.69976562 21.35285156 -1.77453125 22.64320312 -1.8515625 23.97265625 C-1.90054688 24.97167969 -1.94953125 25.97070312 -2 27 C-2.33 27 -2.66 27 -3 27 C-3.24798276 24.04213336 -3.47411854 21.08538702 -3.6875 18.125 C-3.76033203 17.28324219 -3.83316406 16.44148438 -3.90820312 15.57421875 C-3.96298828 14.76855469 -4.01777344 13.96289062 -4.07421875 13.1328125 C-4.13182373 12.38918457 -4.18942871 11.64555664 -4.2487793 10.87939453 C-4.12563354 9.94909424 -4.12563354 9.94909424 -4 9 C-3.01 8.34 -2.02 7.68 -1 7 C-0.26393501 3.43230448 -0.26393501 3.43230448 0 0 Z " fill="#C1DEF6" transform="translate(104,55)"/>
<path d="M0 0 C1.67542976 0.28604898 3.34385343 0.61781233 5 1 C4.67 2.32 4.34 3.64 4 5 C4 4.01 4 3.02 4 2 C3.01 2 2.02 2 1 2 C0.67 14.54 0.34 27.08 0 40 C-3.3 40 -6.6 40 -10 40 C-10 39.67 -10 39.34 -10 39 C-7.03 39 -4.06 39 -1 39 C-1.00523682 37.854104 -1.01047363 36.70820801 -1.01586914 35.52758789 C-1.03391717 31.29159318 -1.04543128 27.05560188 -1.05493164 22.81958008 C-1.05997231 20.98331125 -1.06680477 19.14704646 -1.07543945 17.31079102 C-1.08751672 14.67723599 -1.09323081 12.04373384 -1.09765625 9.41015625 C-1.10281754 8.58411392 -1.10797882 7.75807159 -1.11329651 6.90699768 C-1.11349205 4.93763632 -1.06204152 2.96838386 -1 1 C-0.67 0.67 -0.34 0.34 0 0 Z " fill="#2D6EBE" transform="translate(262,109)"/>
<path d="M0 0 C0.66 0.33 1.32 0.66 2 1 C1.67 2.65 1.34 4.3 1 6 C-0.32 6 -1.64 6 -3 6 C-2.835 6.61875 -2.67 7.2375 -2.5 7.875 C-1.47418653 14.28633419 -1.09605183 21.03926428 -4 27 C-4.99 27.33 -5.98 27.66 -7 28 C-6.68160156 27.03707031 -6.36320313 26.07414062 -6.03515625 25.08203125 C-4.76528696 20.63916697 -4.59110866 16.28452004 -4.4375 11.6875 C-4.12177558 3.24355116 -4.12177558 3.24355116 -3 1 C-2.01 0.67 -1.02 0.34 0 0 Z " fill="#2774D7" transform="translate(189,56)"/>
<path d="M0 0 C0 0.66 0 1.32 0 2 C-0.66 2 -1.32 2 -2 2 C-2 2.66 -2 3.32 -2 4 C-4 5.33333333 -6 6.66666667 -8 8 C-10.32683731 10.40439855 -10.95844396 11.39051145 -11.1875 14.75 C-11.125625 15.4925 -11.06375 16.235 -11 17 C-9.68 17.66 -8.36 18.32 -7 19 C-7 19.33 -7 19.66 -7 20 C-9.31 20 -11.62 20 -14 20 C-14.31563182 14.73946963 -13.66590937 11.55426184 -11 7 C-10.34 7 -9.68 7 -9 7 C-8.773125 6.401875 -8.54625 5.80375 -8.3125 5.1875 C-6.43375091 2.05625152 -3.74574487 0 0 0 Z " fill="#08499D" transform="translate(99,91)"/>
<path d="M0 0 C0.98484375 0.01804687 1.9696875 0.03609375 2.984375 0.0546875 C4.10585937 0.08949219 4.10585937 0.08949219 5.25 0.125 C4.92 1.775 4.59 3.425 4.25 5.125 C4.91 5.455 5.57 5.785 6.25 6.125 C5.59 6.125 4.93 6.125 4.25 6.125 C4.58 7.775 4.91 9.425 5.25 11.125 C4.59 10.795 3.93 10.465 3.25 10.125 C3.25 9.465 3.25 8.805 3.25 8.125 C2.59 8.125 1.93 8.125 1.25 8.125 C0.59 6.475 -0.07 4.825 -0.75 3.125 C-3.72 2.795 -6.69 2.465 -9.75 2.125 C-5.76219998 0.13109999 -4.27852428 -0.10186963 0 0 Z " fill="#1772E6" transform="translate(158.75,96.875)"/>
<path d="M0 0 C0.33 0 0.66 0 1 0 C1.01981934 0.85754883 1.03963867 1.71509766 1.06005859 2.59863281 C1.13829521 5.78947642 1.22499343 8.9799474 1.31738281 12.17041016 C1.35559338 13.54955243 1.39046002 14.92879167 1.421875 16.30810547 C1.46769624 18.29416967 1.52666263 20.27991679 1.5859375 22.265625 C1.6173584 23.45961914 1.6487793 24.65361328 1.68115234 25.88378906 C1.9803287 28.80774539 2.47461838 30.52727611 4 33 C2.68 32.34 1.36 31.68 0 31 C-0.66 32.32 -1.32 33.64 -2 35 C-2.99 32.03 -3.98 29.06 -5 26 C-4.34 25.67 -3.68 25.34 -3 25 C-3 25.66 -3 26.32 -3 27 C-2.01 27 -1.02 27 0 27 C0 18.09 0 9.18 0 0 Z " fill="#4381D0" transform="translate(332,113)"/>
<path d="M0 0 C5.85659906 1.66153012 11.4590134 3.47041916 17 6 C17 6.33 17 6.66 17 7 C10.90673051 6.44606641 5.76123315 5.07044316 0 3 C0 8.28 0 13.56 0 19 C-0.33 19 -0.66 19 -1 19 C-1.02690104 16.20826945 -1.04679053 13.41679652 -1.0625 10.625 C-1.07087891 9.8309375 -1.07925781 9.036875 -1.08789062 8.21875 C-1.11328125 2.2265625 -1.11328125 2.2265625 0 0 Z " fill="#4B88D2" transform="translate(114,59)"/>
<path d="M0 0 C4.95 1.98 4.95 1.98 10 4 C10.12538093 12.52590335 10.12538093 12.52590335 9.5 14.890625 C8.98836859 17.04907002 8.88557357 18.89571125 8.90234375 21.109375 C8.90556641 21.86347656 8.90878906 22.61757812 8.91210938 23.39453125 C8.92048828 24.17183594 8.92886719 24.94914062 8.9375 25.75 C8.94201172 26.54277344 8.94652344 27.33554688 8.95117188 28.15234375 C8.96291435 30.10159508 8.98084854 32.05080738 9 34 C8.67 34 8.34 34 8 34 C7.83115799 30.29176238 7.66531406 26.58339644 7.5 22.875 C7.45230469 21.82828125 7.40460938 20.7815625 7.35546875 19.703125 C7.13817365 14.79846413 6.93202751 9.91101213 7 5 C4.69 4.01 2.38 3.02 0 2 C0 1.34 0 0.68 0 0 Z " fill="#3478CC" transform="translate(92,50)"/>
<path d="M0 0 C0.99 0.66 1.98 1.32 3 2 C3.22137393 4.62697064 3.28162025 7.00893964 3.1875 9.625 C3.17396484 10.33140625 3.16042969 11.0378125 3.14648438 11.765625 C3.1111104 13.51074128 3.05730221 15.25546608 3 17 C-1.29 17 -5.58 17 -10 17 C-10 18.98 -10 20.96 -10 23 C-10.33 23 -10.66 23 -11 23 C-11 20.36 -11 17.72 -11 15 C-6.71 15 -2.42 15 2 15 C1.34 10.05 0.68 5.1 0 0 Z " fill="#C3E1F9" transform="translate(300,116)"/>
<path d="M0 0 C3.63 0 7.26 0 11 0 C11.33 0.99 11.66 1.98 12 3 C10.576875 3.12375 10.576875 3.12375 9.125 3.25 C5.89538209 3.65074923 5.89538209 3.65074923 4.625 6.0625 C4.41875 6.701875 4.2125 7.34125 4 8 C2.68 7.67 1.36 7.34 0 7 C0 4.69 0 2.38 0 0 Z " fill="#2A6FC7" transform="translate(290,133)"/>
<path d="M0 0 C0 0.66 0 1.32 0 2 C-0.99 2 -1.98 2 -3 2 C-2.34 2.66 -1.68 3.32 -1 4 C-0.67 4.66 -0.34 5.32 0 6 C1.98 6 3.96 6 6 6 C6 6.66 6 7.32 6 8 C2.37 8.33 -1.26 8.66 -5 9 C-4.67 7.35 -4.34 5.7 -4 4 C-7.3 4 -10.6 4 -14 4 C-14 3.67 -14 3.34 -14 3 C-12.0424015 2.49713066 -10.08389623 1.9977901 -8.125 1.5 C-7.03445312 1.2215625 -5.94390625 0.943125 -4.8203125 0.65625 C-2 0 -2 0 0 0 Z " fill="#2572D1" transform="translate(168,93)"/>
<path d="M0 0 C2.31 0 4.62 0 7 0 C7 3.63 7 7.26 7 11 C9.97 11 12.94 11 16 11 C16 11.33 16 11.66 16 12 C11.38 12.33 6.76 12.66 2 13 C2.33 12.34 2.66 11.68 3 11 C3.66 11 4.32 11 5 11 C5 7.7 5 4.4 5 1 C3.68 1 2.36 1 1 1 C1 4.3 1 7.6 1 11 C0.67 11 0.34 11 0 11 C0 7.37 0 3.74 0 0 Z " fill="#2D73CB" transform="translate(146,137)"/>
<path d="M0 0 C0.33 0 0.66 0 1 0 C1 10.89 1 21.78 1 33 C0.34 33 -0.32 33 -1 33 C-1.33 33.66 -1.66 34.32 -2 35 C-2.99 35 -3.98 35 -5 35 C-6.33981486 35.3062434 -7.67511887 35.63451555 -9 36 C-9 35.34 -9 34.68 -9 34 C-8.05125 33.5875 -7.1025 33.175 -6.125 32.75 C-2.78219133 30.87802715 -2.25193796 30.44301338 -1 27 C-0.63443135 24.0011881 -0.63443135 24.0011881 -0.5859375 20.703125 C-0.52792969 18.89521484 -0.52792969 18.89521484 -0.46875 17.05078125 C-0.42234375 15.16939453 -0.42234375 15.16939453 -0.375 13.25 C-0.33632812 11.98027344 -0.29765625 10.71054688 -0.2578125 9.40234375 C-0.16355778 6.2683743 -0.07794834 3.13441051 0 0 Z " fill="#2C73CC" transform="translate(206,114)"/>
<path d="M0 0 C2.64 0 5.28 0 8 0 C8 3.63 8 7.26 8 11 C6.11656068 7.23312136 5.77942165 5.97041037 6 2 C4.35 2 2.7 2 1 2 C1 9.59 1 17.18 1 25 C0.67 25 0.34 25 0 25 C0 16.75 0 8.5 0 0 Z " fill="#DFF9FF" transform="translate(333,113)"/>
<path d="M0 0 C2.61047801 1.305239 2.68066423 2.35826574 3.625 5.0625 C3.88539063 5.79597656 4.14578125 6.52945313 4.4140625 7.28515625 C4.60742188 7.85105469 4.80078125 8.41695312 5 9 C7.64 9.33 10.28 9.66 13 10 C13 10.33 13 10.66 13 11 C11.54176788 11.0270043 10.08339325 11.04639787 8.625 11.0625 C7.81289063 11.07410156 7.00078125 11.08570313 6.1640625 11.09765625 C4 11 4 11 2 10 C1.375 7.4375 1.375 7.4375 1 5 C0.690625 5.804375 0.38125 6.60875 0.0625 7.4375 C-1 10 -1 10 -2 11 C-3.51928038 11.07179964 -5.04167482 11.08392007 -6.5625 11.0625 C-7.38878906 11.05347656 -8.21507812 11.04445312 -9.06640625 11.03515625 C-9.70449219 11.02355469 -10.34257812 11.01195312 -11 11 C-11 10.67 -11 10.34 -11 10 C-9.9275 10.020625 -8.855 10.04125 -7.75 10.0625 C-3.95901798 9.43105178 -3.95901798 9.43105178 -2.64453125 6.9296875 C-1.65208136 4.64382818 -0.7706187 2.36929353 0 0 Z " fill="#3779CA" transform="translate(317,138)"/>
<path d="M0 0 C1.9375 0.375 1.9375 0.375 4 1 C4.33 1.66 4.66 2.32 5 3 C7.52733235 3.65555119 7.52733235 3.65555119 10 4 C8.68 4.33 7.36 4.66 6 5 C8.05233685 7.2477975 9.00667261 8.0022242 12 9 C11.67 10.32 11.34 11.64 11 13 C7 10 3 7 -1 4 C-0.67 2.68 -0.34 1.36 0 0 Z " fill="#357AD3" transform="translate(369,120)"/>
<path d="M0 0 C0.33 0 0.66 0 1 0 C1.01458252 1.14065918 1.02916504 2.28131836 1.04418945 3.45654297 C1.10206727 7.67984717 1.17929977 11.90261225 1.26245117 16.12548828 C1.29575026 17.9548265 1.32376657 19.7842687 1.34643555 21.61376953 C1.37989077 24.24036056 1.43219963 26.86599441 1.48828125 29.4921875 C1.49786613 30.72350906 1.49786613 30.72350906 1.50764465 31.97970581 C1.53942217 34.52614374 1.53942217 34.52614374 2 38 C2.99 38.66 3.98 39.32 5 40 C2.525 40.495 2.525 40.495 0 41 C-1.30286938 37.09139187 -1.01353276 33.45657086 -0.87890625 29.39453125 C-0.85529526 28.55532639 -0.83168427 27.71612152 -0.80735779 26.85148621 C-0.73079724 24.1716488 -0.64674019 21.49210593 -0.5625 18.8125 C-0.50927169 16.99545711 -0.45653134 15.17839986 -0.40429688 13.36132812 C-0.27519238 8.90736565 -0.13936429 4.45365278 0 0 Z " fill="#CFF0FE" transform="translate(174,101)"/>
<path d="M0 0 C0.6875 1.75 0.6875 1.75 1 4 C0 6.1875 0 6.1875 -2 8 C-8.17327692 9.57615581 -14.66729736 9.09358674 -21 9 C-21.33 8.34 -21.66 7.68 -22 7 C-20.948125 7.06960937 -20.948125 7.06960937 -19.875 7.140625 C-13.29165254 7.39107844 -8.45973842 6.85014573 -3 3 C-1.97585897 2.02473842 -0.96851496 1.03052354 0 0 Z " fill="#1C6CD6" transform="translate(118,136)"/>
<path d="M0 0 C1.17042847 0.39276123 1.17042847 0.39276123 2.36450195 0.79345703 C3.21206055 1.07060547 4.05961914 1.34775391 4.93286133 1.63330078 C5.81393555 1.93623047 6.69500977 2.23916016 7.6027832 2.55126953 C8.49545898 2.84646484 9.38813477 3.14166016 10.30786133 3.44580078 C12.51460162 4.17744729 14.71644265 4.92127837 16.9152832 5.67626953 C15.9252832 6.17126953 15.9252832 6.17126953 14.9152832 6.67626953 C14.5852832 7.33626953 14.2552832 7.99626953 13.9152832 8.67626953 C7.6452832 6.36626953 1.3752832 4.05626953 -5.0847168 1.67626953 C-2.0847168 -0.32373047 -2.0847168 -0.32373047 0 0 Z " fill="#457EC7" transform="translate(133.084716796875,65.32373046875)"/>
<path d="M0 0 C0.99 0 1.98 0 3 0 C3 0.66 3 1.32 3 2 C2.34 2 1.68 2 1 2 C1.01160156 2.87140625 1.02320313 3.7428125 1.03515625 4.640625 C1.0946139 12.48903438 0.80077708 20.1924235 0 28 C-0.33 28 -0.66 28 -1 28 C-1.02886338 23.52084672 -1.04675187 19.04171709 -1.0625 14.5625 C-1.07087891 13.28310547 -1.07925781 12.00371094 -1.08789062 10.68554688 C-1.09111328 9.47060547 -1.09433594 8.25566406 -1.09765625 7.00390625 C-1.10289307 5.87799072 -1.10812988 4.7520752 -1.11352539 3.59204102 C-1 1 -1 1 0 0 Z " fill="#2F72C8" transform="translate(220,120)"/>
<path d="M0 0 C1.32 0.33 2.64 0.66 4 1 C3.35256836 1.68408936 2.70513672 2.36817871 2.03808594 3.07299805 C-0.42123203 6.60495338 -0.53418417 8.56495144 -0.609375 12.83203125 C-0.64160156 14.12431641 -0.67382812 15.41660156 -0.70703125 16.74804688 C-0.7217735 18.10286009 -0.73609112 19.45767798 -0.75 20.8125 C-0.77817759 22.18688639 -0.80810754 23.56123805 -0.83984375 24.93554688 C-0.91047274 28.2904241 -0.96320774 31.64460896 -1 35 C-1.33 35 -1.66 35 -2 35 C-2 24.44 -2 13.88 -2 3 C-1.34 3 -0.68 3 0 3 C0 2.01 0 1.02 0 0 Z " fill="#3173C8" transform="translate(211,113)"/>
<path d="M0 0 C1.98 0 3.96 0 6 0 C7.32 3.3 8.64 6.6 10 10 C9.34 10 8.68 10 8 10 C8 9.01 8 8.02 8 7 C7.34 7 6.68 7 6 7 C5.67 10.63 5.34 14.26 5 18 C4.67 18 4.34 18 4 18 C3.96261719 17.03578125 3.92523438 16.0715625 3.88671875 15.078125 C3.82097656 13.81484375 3.75523437 12.5515625 3.6875 11.25 C3.62949219 9.99703125 3.57148438 8.7440625 3.51171875 7.453125 C2.99544099 3.96923537 2.3746744 2.52110204 0 0 Z " fill="#4586D6" transform="translate(299,114)"/>
<path d="M0 0 C0.08172936 2.5215021 0.14083373 5.04029917 0.1875 7.5625 C0.22520508 8.61920898 0.22520508 8.61920898 0.26367188 9.69726562 C0.33532304 14.88003315 -0.67827402 18.36264182 -3 23 C-3.33 22.01 -3.66 21.02 -4 20 C-3.67 19.34 -3.34 18.68 -3 18 C-2.7677354 15.28737884 -2.58063765 12.59226874 -2.4375 9.875 C-2.39431641 9.12089844 -2.35113281 8.36679688 -2.30664062 7.58984375 C-2.2005168 5.72678112 -2.09974999 3.86341476 -2 2 C-2.99 1.67 -3.98 1.34 -5 1 C-3 0 -3 0 0 0 Z " fill="#BADEFC" transform="translate(185,61)"/>
<path d="M0 0 C0.66 0 1.32 0 2 0 C2 8.58 2 17.16 2 26 C1.67 26 1.34 26 1 26 C0.67 19.4 0.34 12.8 0 6 C-0.33 6.66 -0.66 7.32 -1 8 C-1.66 8 -2.32 8 -3 8 C-1.125 2.25 -1.125 2.25 0 0 Z " fill="#2872CE" transform="translate(330,114)"/>
<path d="M0 0 C2.97 0 5.94 0 9 0 C8.67 1.65 8.34 3.3 8 5 C7.67 4.01 7.34 3.02 7 2 C5.35 2 3.7 2 2 2 C1.731875 2.94875 1.46375 3.8975 1.1875 4.875 C0 8 0 8 -3 10 C-1.125 2.25 -1.125 2.25 0 0 Z " fill="#CEEBFD" transform="translate(321,113)"/>
<path d="M0 0 C0.66 0 1.32 0 2 0 C2 4.95 2 9.9 2 15 C1.01 14.67 0.02 14.34 -1 14 C-1.02685938 11.85423363 -1.04633088 9.70837355 -1.0625 7.5625 C-1.07410156 6.36753906 -1.08570312 5.17257813 -1.09765625 3.94140625 C-1 1 -1 1 0 0 Z " fill="#EFFEFF" transform="translate(103,67)"/>
<path d="M0 0 C2.125 0.375 2.125 0.375 4 1 C4 2.98 4 4.96 4 7 C2.02 7 0.04 7 -2 7 C-2.125 4.625 -2.125 4.625 -2 2 C-1.34 1.34 -0.68 0.68 0 0 Z " fill="#387DD0" transform="translate(291,120)"/>
<path d="M0 0 C0.66 0.66 1.32 1.32 2 2 C-0.64 1.67 -3.28 1.34 -6 1 C-6 1.66 -6 2.32 -6 3 C-8.31 3.66 -10.62 4.32 -13 5 C-13.33 6.32 -13.66 7.64 -14 9 C-14.66 9 -15.32 9 -16 9 C-15.04872818 5.57542144 -14.07456145 4.06568509 -11.375 1.6875 C-7.0759501 -0.46202495 -4.75134381 -0.47513438 0 0 Z " fill="#D4EEFD" transform="translate(153,100)"/>
<path d="M0 0 C0.99 0.33 1.98 0.66 3 1 C0.79750193 4.36170759 -1.33676075 6.30240132 -5 8 C-7.25 7.8125 -7.25 7.8125 -9 7 C-9.33 6.34 -9.66 5.68 -10 5 C-6.7 3.68 -3.4 2.36 0 1 C0 0.67 0 0.34 0 0 Z " fill="#2976D4" transform="translate(217,44)"/>
<path d="M0 0 C3.375 1.5 3.375 1.5 6 3 C3.11207132 4.08297325 0.86369258 3.92928493 -2.125 3.5 C-5.787174 2.661088 -5.787174 2.661088 -8 4 C-8.66 3.34 -9.32 2.68 -10 2 C-6.57207024 -0.10949524 -3.99098272 -0.39909827 0 0 Z " fill="#D3EAFA" transform="translate(224,112)"/>
<path d="M0 0 C0.33 0 0.66 0 1 0 C2.33257403 9.41002278 2.33257403 9.41002278 1 14 C-0.5625 12.5 -0.5625 12.5 -2 10 C-2.02071418 6.50620845 -1.57639102 3.15278203 0 0 Z " fill="#2B76D3" transform="translate(326,123)"/>
<path d="M0 0 C2.64 0 5.28 0 8 0 C7.67 0.99 7.34 1.98 7 3 C5.68 3 4.36 3 3 3 C2.67 4.65 2.34 6.3 2 8 C0 6 0 6 -0.125 2.875 C-0.08375 1.92625 -0.0425 0.9775 0 0 Z " fill="#DDF8FE" transform="translate(359,137)"/>
<path d="M0 0 C2.31 0.33 4.62 0.66 7 1 C6.25 2.9375 6.25 2.9375 5 5 C2.9375 5.8125 2.9375 5.8125 1 6 C0 5 0 5 -0.0625 2.4375 C-0.041875 1.633125 -0.02125 0.82875 0 0 Z " fill="#1772E3" transform="translate(107,58)"/>
<path d="M0 0 C3.65316671 1.24976756 4.78065836 1.67098753 7 5 C6.625 7.1875 6.625 7.1875 6 9 C5.67 7.35 5.34 5.7 5 4 C4.01 4 3.02 4 2 4 C1.67 4.66 1.34 5.32 1 6 C0.4465236 3.92446352 0 2.15634036 0 0 Z " fill="#D9F0FD" transform="translate(374,113)"/>
<path d="M0 0 C0.66 0.33 1.32 0.66 2 1 C0.515 2.485 0.515 2.485 -1 4 C0.32 4.33 1.64 4.66 3 5 C3 5.66 3 6.32 3 7 C0.03 6.01 -2.94 5.02 -6 4 C-3 1 -3 1 0 0 Z " fill="#C9E9FB" transform="translate(86,42)"/>
<path d="M0 0 C-5.22771463 3.04157942 -8.92671312 4.50610724 -15 4 C-15 3.67 -15 3.34 -15 3 C-13.4221875 2.566875 -13.4221875 2.566875 -11.8125 2.125 C-8.12939099 1.12134655 -8.12939099 1.12134655 -5.25 -0.1875 C-3 -1 -3 -1 0 0 Z " fill="#054898" transform="translate(115,140)"/>
<path d="M0 0 C1.875 0.125 1.875 0.125 4 1 C6.28258584 5.67930096 6.17523261 9.91825435 6 15 C5.67 15 5.34 15 5 15 C4.89042969 14.33613281 4.78085938 13.67226562 4.66796875 12.98828125 C3.78863977 8.09120522 3.00548286 4.09838572 0 0 Z " fill="#1C6ACE" transform="translate(116,96)"/>
<path d="M0 0 C1.65 0 3.3 0 5 0 C4.67 1.32 4.34 2.64 4 4 C2.68 4.33 1.36 4.66 0 5 C0 3.35 0 1.7 0 0 Z " fill="#1C72E1" transform="translate(291,134)"/>
<path d="M0 0 C0 2.64 0 5.28 0 8 C-0.99 8 -1.98 8 -3 8 C-3 5.69 -3 3.38 -3 1 C-1 0 -1 0 0 0 Z " fill="#044694" transform="translate(105,108)"/>
<path d="M0 0 C0.33 0 0.66 0 1 0 C1 2.31 1 4.62 1 7 C-1.64 7 -4.28 7 -7 7 C-6.67 6.34 -6.34 5.68 -6 5 C-4.35 5 -2.7 5 -1 5 C-0.67 3.35 -0.34 1.7 0 0 Z " fill="#054699" transform="translate(120,104)"/>
<path d="M0 0 C1.48206495 0.254496 2.96068615 0.52911762 4.4375 0.8125 C5.67306641 1.03873047 5.67306641 1.03873047 6.93359375 1.26953125 C7.95646484 1.63111328 7.95646484 1.63111328 9 2 C9.33 2.99 9.66 3.98 10 5 C5.2482602 4.56802365 3.07999946 3.67230705 0 0 Z " fill="#074799" transform="translate(90,138)"/>
<path d="M0 0 C0.66 0.66 1.32 1.32 2 2 C3.32 2 4.64 2 6 2 C6.33 2.66 6.66 3.32 7 4 C7.66 4 8.32 4 9 4 C8.67 5.32 8.34 6.64 8 8 C6.6589523 7.24266726 5.32730219 6.46867264 4 5.6875 C2.88625 5.04361328 2.88625 5.04361328 1.75 4.38671875 C1.1725 3.92910156 0.595 3.47148438 0 3 C0 2.01 0 1.02 0 0 Z " fill="#1B6CCF" transform="translate(107,88)"/>
<path d="M0 0 C0.66 0.33 1.32 0.66 2 1 C1.67 1.66 1.34 2.32 1 3 C1.99 3.33 2.98 3.66 4 4 C3.67 4.66 3.34 5.32 3 6 C0.36 5.01 -2.28 4.02 -5 3 C-4.360625 2.690625 -3.72125 2.38125 -3.0625 2.0625 C-1.06389179 1.1654837 -1.06389179 1.1654837 0 0 Z " fill="#2F78D4" transform="translate(180,26)"/>
<path d="M0 0 C1.32 0 2.64 0 4 0 C4.33 1.32 4.66 2.64 5 4 C3.02 4 1.04 4 -1 4 C-0.67 2.68 -0.34 1.36 0 0 Z " fill="#1671E5" transform="translate(359,131)"/>
<path d="M0 0 C0.66 0.33 1.32 0.66 2 1 C1.34 2.32 0.68 3.64 0 5 C-2.97 5 -5.94 5 -9 5 C-9 4.67 -9 4.34 -9 4 C-7.88625 3.896875 -6.7725 3.79375 -5.625 3.6875 C-4.42875 3.460625 -3.2325 3.23375 -2 3 C-1.34 2.01 -0.68 1.02 0 0 Z " fill="#2D76D0" transform="translate(315,144)"/>
<path d="M0 0 C0.99 0 1.98 0 3 0 C2.34 2.97 1.68 5.94 1 9 C0.34 8.67 -0.32 8.34 -1 8 C-0.67 5.36 -0.34 2.72 0 0 Z " fill="#2A71CD" transform="translate(358,116)"/>
<path d="M0 0 C1.32 0.33 2.64 0.66 4 1 C3.19152271 2.16945792 2.37810888 3.33550461 1.5625 4.5 C1.11003906 5.1496875 0.65757812 5.799375 0.19140625 6.46875 C-0.20175781 6.9740625 -0.59492188 7.479375 -1 8 C-1.33 8 -1.66 8 -2 8 C-2 6.35 -2 4.7 -2 3 C-1.34 3 -0.68 3 0 3 C0 2.01 0 1.02 0 0 Z " fill="#2B73D5" transform="translate(211,113)"/>
<path d="M0 0 C1.67542976 0.28604898 3.34385343 0.61781233 5 1 C4.67 2.32 4.34 3.64 4 5 C4 4.01 4 3.02 4 2 C3.01 2 2.02 2 1 2 C1 3.98 1 5.96 1 8 C0.67 8 0.34 8 0 8 C-0.38063221 5.6739143 -0.71269945 3.33944736 -1 1 C-0.67 0.67 -0.34 0.34 0 0 Z " fill="#3276CD" transform="translate(262,109)"/>
<path d="M0 0 C0.66 0.33 1.32 0.66 2 1 C-1.625 5.875 -1.625 5.875 -5 7 C-4.49396008 4.83125748 -4.00016187 3.00032373 -3 1 C-2.01 0.67 -1.02 0.34 0 0 Z " fill="#1E6AD0" transform="translate(92,92)"/>
<path d="M0 0 C1.43836751 0.11458693 2.87570966 0.24209116 4.3125 0.375 C5.51326172 0.47941406 5.51326172 0.47941406 6.73828125 0.5859375 C9 1 9 1 12 3 C11.67 3.66 11.34 4.32 11 5 C7.37 3.68 3.74 2.36 0 1 C0 0.67 0 0.34 0 0 Z " fill="#377BCE" transform="translate(185,32)"/>
<path d="M0 0 C0.66 0 1.32 0 2 0 C3.40182371 2.61673759 4.60495559 5.0371669 5 8 C4.34 8.66 3.68 9.32 3 10 C2.01 6.7 1.02 3.4 0 0 Z " fill="#3676C8" transform="translate(314,113)"/>
<path d="M0 0 C0 0.66 0 1.32 0 2 C-1.65002828 3.35386936 -3.3174387 4.68678142 -5 6 C-5.33 6.66 -5.66 7.32 -6 8 C-6.66 7.67 -7.32 7.34 -8 7 C-4.13157895 0 -4.13157895 0 0 0 Z " fill="#D8F1FD" transform="translate(260,101)"/>
<path d="M0 0 C-0.33 0.99 -0.66 1.98 -1 3 C-5.455 3.495 -5.455 3.495 -10 4 C-6.86268382 1.90845588 -3.85464592 0 0 0 Z " fill="#D4EEFD" transform="translate(101,37)"/>
<path d="M0 0 C2.97 0.495 2.97 0.495 6 1 C6 1.66 6 2.32 6 3 C3.69 3 1.38 3 -1 3 C-0.67 2.01 -0.34 1.02 0 0 Z " fill="#D8EFFE" transform="translate(147,134)"/>
<path d="M0 0 C4.20626034 1.50223584 5.73900021 4.28550034 8 8 C4.20645982 6.50968064 2.3521464 4.27620391 0 1 C0 0.67 0 0.34 0 0 Z " fill="#DCF7FE" transform="translate(115,81)"/>
</svg>
